<svg width="44" height="36" viewBox="0 0 44 36" fill="none" xmlns="http://www.w3.org/2000/svg">
  <path d="M5.10021 5.94725C9.89873 9.66669 18.3187 16.2103 20.7934 18.2506C21.1256 18.526 21.4819 18.666 21.8518 18.666C22.221 18.666 22.5767 18.5273 22.9082 18.2533C25.385 16.2109 33.8049 9.66669 38.6035 5.94725C38.9023 5.71612 38.9478 5.30987 38.706 5.02731C38.1468 4.37437 37.3132 4 36.4197 4H7.28396C6.39056 4 5.55684 4.37438 4.99777 5.02738C4.7559 5.30988 4.80145 5.71612 5.10021 5.94725Z" fill="#CD06FF" />
  <g filter="url(#filter0_d_1763_39)">
    <path d="M38.9108 7.96279C38.6526 7.85279 38.3489 7.89116 38.1341 8.05916C32.8126 12.188 26.0209 17.4804 23.8841 19.2427C22.6847 20.2336 21.0202 20.2336 19.8181 19.2414C17.5405 17.3632 9.91363 11.4289 5.56962 8.0591C5.35335 7.8911 5.04893 7.85404 4.79285 7.96273C4.53541 8.07216 4.37036 8.30785 4.37036 8.5676V25.3332C4.37036 26.804 5.67703 27.9999 7.28396 27.9999H36.4198C38.0267 27.9999 39.3333 26.804 39.3333 25.3332V8.5676C39.3333 8.30785 39.1683 8.07154 38.9108 7.96279Z" fill="#CD06FF" />
  </g>
  <defs>
    <filter id="filter0_d_1763_39" x="0.370361" y="7.90063" width="42.963" height="28.0994" filterUnits="userSpaceOnUse" color-interpolation-filters="sRGB">
      <feFlood flood-opacity="0" result="BackgroundImageFix" />
      <feColorMatrix in="SourceAlpha" type="matrix" values="0 0 0 0 0 0 0 0 0 0 0 0 0 0 0 0 0 0 127 0" result="hardAlpha" />
      <feOffset dy="4" />
      <feGaussianBlur stdDeviation="2" />
      <feComposite in2="hardAlpha" operator="out" />
      <feColorMatrix type="matrix" values="0 0 0 0 0 0 0 0 0 0 0 0 0 0 0 0 0 0 0.25 0" />
      <feBlend mode="normal" in2="BackgroundImageFix" result="effect1_dropShadow_1763_39" />
      <feBlend mode="normal" in="SourceGraphic" in2="effect1_dropShadow_1763_39" result="shape" />
    </filter>
  </defs>
</svg>